<?xml version="1.0" encoding="utf-8"?>
<!-- Generator: Adobe Illustrator 26.0.1, SVG Export Plug-In . SVG Version: 6.00 Build 0)  -->
<svg version="1.1" id="Capa_1" xmlns="http://www.w3.org/2000/svg" xmlns:xlink="http://www.w3.org/1999/xlink" x="0px" y="0px"
	 viewBox="0 0 210 157" style="enable-background:new 0 0 210 157;" xml:space="preserve">
<style type="text/css">
	.st0{fill:#F9E7CD;}
	.st1{fill:#030900;}
	.st2{fill:#FFFFFF;stroke:#FFFFFF;stroke-width:2.5146;stroke-miterlimit:10;}
	.st3{fill:#846D4D;}
	.st4{fill:none;stroke:#030900;stroke-width:1.2573;stroke-linecap:round;stroke-linejoin:round;stroke-miterlimit:10;}
</style>
<g>
	<path class="st0" d="M14.11,94.02v5.93l3.47,2.92l39.4,33.19l1.43,1.21l3.47,2.92l-2.51,15.09h120.7
		c-15.09-55.32-59.09-76.7-59.09-76.7s7.54-30.18-5.03-32.69c-12.32-2.46-2.89,26.5-2.54,27.64c-0.15-0.15-1.11-1.06-3.14-2.36
		c-1.56,5.88-5.71,19.26-10.66,16.27c-5.71-3.47-2.09-13.1-1.38-14.86c-0.83,1.68-5.61,10.34-12.45,3.5
		c-2.51-5.03-1.11-6.04-1.11-6.04s-10.66-1.16-13.35-9.81c-6.99,0.6-12.07,3.39-15.74,7.14c-1.63,1.63-2.99,3.47-4.1,5.38v0.03
		c-5.71,9.63-5.63,21.25-5.63,21.25H14.11z"/>
	<path class="st1" d="M7.82,86.12c0,0,5.03-2.51,10.06,2.51s5.03,10.06,3.88,11.87c-0.82,1.3-6.39,5.73-13.94-1.81
		S7.82,86.12,7.82,86.12z"/>
	<circle class="st2" cx="98.35" cy="108.76" r="18.86"/>
	<path class="st3" d="M59.84,49.29c2.13,0.66,3.65,1.63,3.65,1.63s-7.9-27.66,7.19-27.66s15.09,27.66,15.09,27.66
		s15.09-52.81,45.26-45.26c20.12,5.03-3.02,40.08-3.02,40.08s43.25-35.05,65.88-17.45c15.09,12.57-27.36,44.01-27.36,44.01
		s21.75-12.6,34.63,4.38c12.85,17-27.38,22.03-27.38,22.03s22.58-2.51,22.61,11.32c0.03,9.98-11.79,10.13-18.33,9.46
		c3.37,0.96,21.72,3.04,19.61,15.69c-2.51,15.09-17.6,20.12-17.6,20.12c-15.09-55.32-59.09-76.7-59.09-76.7s7.54-30.18-5.03-32.69
		c-12.32-2.46-2.89,26.5-2.54,27.64c-0.15-0.15-8.85,16.9-13.81,13.91c-5.71-3.47-2.09-13.1-1.38-14.86
		c-0.83,1.68-5.61,10.34-12.45,3.5c-2.51-5.03-1.11-6.04-1.11-6.04s-10.66-1.16-13.35-9.81c-6.99,0.6-14.56,7.07-18.23,10.81
		c-2.88-2.25-4.79-8.39-3.9-14.84C49.89,51.03,54.87,47.74,59.84,49.29z"/>
	<path class="st4" d="M148.24,70.04c0,0,2.92-9.06-2.11-11.58s-10.06,7.54-10.06,7.54"/>
	<path class="st4" d="M168.89,115.14c0,0,5.25-4.42,3.14-7.88s-9.03,0.76-9.03,0.76"/>
	<path class="st4" d="M97.82,60.95c0,0-0.51-4.89-4.17-4.18c-3.66,0.71-4.17,6.78-4.17,6.78"/>
	<path class="st4" d="M184.54,87.86c0,0,4.45-2.1,2.57-5.32c-1.88-3.22-7.77-1.7-7.77-1.7"/>
	<path class="st4" d="M185.2,137.06c0,0,4.3,2.38,5.81-1.03c1.51-3.41-3.17-7.3-3.17-7.3"/>
	<circle class="st1" cx="103.38" cy="101.21" r="10.06"/>
	<circle class="st2" cx="58.11" cy="88.64" r="18.86"/>
	<circle class="st1" cx="63.14" cy="81.09" r="8.8"/>
	<path class="st4" d="M120.98,38.35c0,0-5.03-17.6-12.57-2.51c0,0-6.99-12.57-7.27,2.51"/>
	<path class="st1" d="M56.98,136.07l1.43,1.21l0.02-0.03c0.2-0.25,4.75-5.53,3.5-12.1c0.55-0.08,1.11-0.03,1.66,0.13
		c1.13,0.3,1.99,0.68,2.01,0.68c0.48,0.2,1.03,0,1.23-0.48c0.2-0.48,0-1.03-0.48-1.23c-0.05-0.03-0.98-0.43-2.26-0.78
		c-0.88-0.25-1.81-0.3-2.69-0.13c-0.6,0.08-1.18,0.28-1.73,0.55c-0.58,0.3-1.11,0.68-1.58,1.16l-0.65,0.65
		c-0.35,0.35-0.35,0.96,0,1.33c0.2,0.18,0.43,0.25,0.68,0.25c0.23,0,0.48-0.08,0.65-0.28l0.65-0.65c0.23-0.23,0.45-0.4,0.7-0.55
		c0.88,5.53-3.07,10.13-3.09,10.18C57.01,136.01,57.01,136.04,56.98,136.07z"/>
	<path class="st3" d="M142.57,91.15c0,0-7.76,13.83-2.73,13.83s9.24-5.19,9.24-5.19s-3.68,4.5,1.09,6.1
		c4.76,1.6,7.28-0.91,7.28-0.91"/>
	<path class="st1" d="M192.84,39.8c-0.54-0.02-0.9,0.18-1.08,0.6c-0.16,0.37-0.14,0.73,0.06,1.09c0.2,0.36,0.55,0.54,1.04,0.53
		c1.87-0.01,3.41,0.16,4.63,0.52c0.25,0.05,0.48,0.02,0.7-0.11c0.22-0.12,0.38-0.3,0.48-0.53c0.16-0.37,0.17-0.71,0.03-1.02
		c-0.14-0.31-0.39-0.48-0.75-0.53C196.43,40.04,194.74,39.85,192.84,39.8z"/>
	<path class="st1" d="M168.49,50.94c-0.07,0.54,0.1,0.91,0.5,1.13c0.35,0.19,0.72,0.21,1.1,0.04c0.38-0.17,0.59-0.5,0.63-0.99
		c0.16-1.86,0.48-3.38,0.95-4.56c0.08-0.25,0.06-0.48-0.04-0.71c-0.1-0.23-0.27-0.4-0.49-0.52c-0.35-0.19-0.69-0.23-1.01-0.12
		c-0.32,0.11-0.52,0.35-0.6,0.7C169.06,47.38,168.72,49.06,168.49,50.94z"/>
	<path class="st1" d="M154.98,82.82c-0.54,0.04-0.88,0.28-1.01,0.71c-0.12,0.39-0.06,0.75,0.18,1.08c0.24,0.34,0.6,0.48,1.09,0.42
		c1.86-0.22,3.41-0.21,4.65,0.01c0.26,0.03,0.48-0.03,0.69-0.18c0.2-0.15,0.34-0.34,0.42-0.58c0.12-0.38,0.09-0.72-0.08-1.01
		c-0.17-0.29-0.44-0.44-0.81-0.45C158.58,82.66,156.87,82.66,154.98,82.82z"/>
	<path class="st1" d="M195.35,135.35c-0.54-0.02-0.9,0.18-1.08,0.6c-0.16,0.37-0.14,0.73,0.06,1.09c0.2,0.36,0.55,0.54,1.04,0.53
		c1.87-0.01,3.41,0.16,4.63,0.52c0.25,0.05,0.48,0.02,0.7-0.11c0.22-0.12,0.38-0.3,0.48-0.53c0.16-0.37,0.17-0.71,0.03-1.02
		c-0.14-0.31-0.39-0.48-0.75-0.53C198.95,135.59,197.25,135.41,195.35,135.35z"/>
	<path class="st1" d="M190.26,24.06l-0.13,0.17l-2.1,1.89c-0.32,0.25-0.45,0.57-0.4,0.97c0.04,0.3,0.19,0.56,0.45,0.78
		c0.26,0.22,0.54,0.31,0.84,0.26c0.15-0.02,0.34-0.12,0.57-0.31c0.82-0.67,1.54-1.33,2.16-1.98c0.04-0.06,0.12-0.09,0.21-0.11
		c1.3-1.25,2.32-2.15,3.05-2.71c0.32-0.25,0.45-0.57,0.4-0.97c-0.06-0.45-0.28-0.76-0.66-0.94s-0.76-0.13-1.13,0.12L190.26,24.06z"
		/>
	<path class="st1" d="M174.03,20.98l-0.14-0.44c-0.09-0.29-0.33-1.07-0.71-2.34c-0.09-0.29-0.28-0.52-0.55-0.69
		c-0.28-0.16-0.56-0.22-0.86-0.18c-0.24,0.08-0.45,0.25-0.62,0.51c-0.17,0.25-0.23,0.5-0.2,0.75c0.03,0.2,0.3,1.08,0.83,2.63
		c0.07,0.14,0.12,0.31,0.15,0.51c0.38,1.22,0.67,2.24,0.89,3.08c0.04,0.3,0.2,0.53,0.48,0.69c0.28,0.16,0.56,0.2,0.85,0.11
		c0.3-0.04,0.53-0.19,0.7-0.44c0.17-0.25,0.23-0.53,0.19-0.83C174.79,23.31,174.46,22.19,174.03,20.98z"/>
	<path class="st1" d="M58.36,47.74l-0.1-0.34c-0.07-0.23-0.25-0.83-0.55-1.81c-0.07-0.23-0.21-0.4-0.43-0.53
		c-0.22-0.13-0.44-0.17-0.67-0.14c-0.19,0.07-0.35,0.2-0.48,0.39c-0.13,0.19-0.18,0.39-0.15,0.58c0.02,0.15,0.24,0.83,0.64,2.03
		c0.05,0.11,0.09,0.24,0.11,0.4c0.29,0.94,0.52,1.73,0.69,2.38c0.03,0.23,0.16,0.41,0.37,0.54c0.22,0.13,0.43,0.16,0.66,0.08
		c0.23-0.03,0.41-0.15,0.54-0.34c0.13-0.19,0.18-0.41,0.14-0.64C58.94,49.55,58.69,48.68,58.36,47.74z"/>
	<path class="st1" d="M110.45,7.8l-0.42-0.19c-0.28-0.13-1.02-0.47-2.22-1.03c-0.28-0.13-0.57-0.14-0.88-0.04
		c-0.31,0.1-0.54,0.27-0.71,0.52c-0.1,0.24-0.11,0.5-0.03,0.8c0.08,0.29,0.22,0.51,0.43,0.65c0.17,0.11,1.01,0.49,2.51,1.13
		c0.15,0.04,0.31,0.12,0.48,0.23c1.16,0.53,2.12,0.99,2.89,1.38c0.25,0.17,0.53,0.2,0.84,0.11c0.31-0.1,0.52-0.28,0.65-0.56
		c0.17-0.25,0.21-0.52,0.14-0.82c-0.08-0.29-0.24-0.52-0.49-0.69C112.7,8.79,111.64,8.29,110.45,7.8z"/>
	<path class="st1" d="M50.1,53.06l-0.42-0.19c-0.28-0.13-1.02-0.47-2.22-1.03c-0.28-0.13-0.57-0.14-0.88-0.04
		c-0.31,0.1-0.54,0.27-0.71,0.52c-0.1,0.24-0.11,0.5-0.03,0.8c0.08,0.29,0.22,0.51,0.43,0.65c0.17,0.11,1.01,0.49,2.51,1.13
		c0.15,0.04,0.31,0.12,0.48,0.23c1.16,0.53,2.12,0.99,2.89,1.38c0.25,0.17,0.53,0.2,0.84,0.11c0.31-0.1,0.52-0.28,0.65-0.56
		c0.17-0.25,0.21-0.52,0.14-0.82c-0.08-0.29-0.24-0.52-0.49-0.69C52.35,54.05,51.29,53.55,50.1,53.06z"/>
	<path class="st1" d="M201.55,85.24c-0.29-0.21-0.6-0.3-0.95-0.25c-0.3,0.04-0.54,0.19-0.74,0.45c-0.19,0.26-0.27,0.53-0.23,0.83
		c0.04,0.3,0.2,0.56,0.49,0.77c1.65,1.24,2.91,2.46,3.79,3.66c0.3,0.37,0.63,0.52,0.98,0.47c0.45-0.06,0.78-0.27,0.98-0.63
		c0.21-0.36,0.18-0.75-0.09-1.17C204.77,87.99,203.36,86.62,201.55,85.24z"/>
	<path class="st1" d="M147.67,32.17l-0.5-0.31l-0.24-0.12l-0.24-0.12c-0.05,0.01-0.16-0.05-0.33-0.18
		c-0.17-0.13-0.28-0.19-0.33-0.18c-0.22-0.17-0.49-0.24-0.79-0.19c-0.3,0.04-0.54,0.2-0.73,0.48c-0.19,0.28-0.26,0.57-0.22,0.87
		s0.23,0.55,0.56,0.76c0.34,0.26,0.56,0.38,0.66,0.37l0.34,0.26l0.24,0.12l1.23,0.59c0.22,0.12,0.46,0.16,0.7,0.13
		c0.3-0.04,0.53-0.19,0.7-0.44c0.17-0.25,0.23-0.53,0.19-0.83c-0.06-0.4-0.25-0.68-0.57-0.83L147.67,32.17z"/>
	<path class="st1" d="M195.45,142.82l-0.5-0.31l-0.24-0.12l-0.24-0.12c-0.05,0.01-0.16-0.05-0.33-0.18
		c-0.17-0.13-0.28-0.19-0.33-0.18c-0.22-0.17-0.49-0.24-0.79-0.19c-0.3,0.04-0.54,0.2-0.73,0.48c-0.19,0.28-0.26,0.57-0.22,0.87
		c0.04,0.3,0.23,0.55,0.56,0.76c0.34,0.26,0.56,0.38,0.66,0.37l0.34,0.26l0.24,0.12l1.23,0.59c0.22,0.12,0.46,0.16,0.7,0.13
		c0.3-0.04,0.53-0.19,0.7-0.44c0.17-0.25,0.23-0.53,0.19-0.83c-0.06-0.4-0.25-0.68-0.57-0.83L195.45,142.82z"/>
	<path class="st1" d="M117.69,7.66l-0.28-0.52l-0.15-0.22l-0.15-0.22c-0.05-0.02-0.11-0.13-0.2-0.32c-0.08-0.2-0.15-0.3-0.2-0.32
		c-0.11-0.26-0.31-0.45-0.59-0.56s-0.57-0.09-0.87,0.05c-0.31,0.15-0.51,0.36-0.63,0.64c-0.11,0.28-0.08,0.59,0.11,0.94
		c0.17,0.39,0.3,0.61,0.39,0.65l0.17,0.39l0.15,0.22l0.77,1.12c0.13,0.22,0.31,0.37,0.55,0.46c0.28,0.11,0.55,0.1,0.83-0.03
		c0.27-0.13,0.46-0.34,0.58-0.62c0.15-0.37,0.12-0.71-0.08-1.01L117.69,7.66z"/>
	<path class="st1" d="M189.58,69.32l0.47-0.35l0.2-0.18l0.2-0.18c0.01-0.05,0.11-0.13,0.29-0.24c0.18-0.11,0.28-0.19,0.29-0.24
		c0.24-0.15,0.4-0.37,0.47-0.66c0.07-0.29,0.01-0.58-0.18-0.86c-0.19-0.28-0.43-0.45-0.73-0.52c-0.29-0.07-0.6,0.01-0.91,0.25
		c-0.36,0.22-0.56,0.38-0.58,0.48l-0.36,0.22l-0.2,0.18l-1,0.93c-0.19,0.16-0.32,0.37-0.38,0.61c-0.07,0.29-0.02,0.56,0.16,0.81
		c0.17,0.25,0.41,0.41,0.7,0.48c0.39,0.09,0.72,0.02,0.99-0.23L189.58,69.32z"/>
</g>
</svg>
