<?xml version="1.0" encoding="utf-8"?>
<!-- Generator: Adobe Illustrator 26.0.1, SVG Export Plug-In . SVG Version: 6.00 Build 0)  -->
<svg version="1.1" id="Capa_1" xmlns="http://www.w3.org/2000/svg" xmlns:xlink="http://www.w3.org/1999/xlink" x="0px" y="0px"
	 viewBox="0 0 184 93" style="enable-background:new 0 0 184 93;" xml:space="preserve">
<style type="text/css">
	.st0{fill:#001858;}
	.st1{fill:#F582AE;}
</style>
<g>
	<g>
		<g>
			<polygon class="st0" points="9.89,5.15 6.1,90.84 61.51,90.84 61.51,80.08 17.66,78.49 23.64,5.15 			"/>
			<polygon class="st0" points="27.23,5.15 25.43,72.31 61.51,72.31 65.29,17.1 94.69,17.1 94.69,5.15 53.34,5.15 50.75,60.75 
				37.59,60.75 41.38,5.15 			"/>
			<polygon class="st0" points="69.88,21.49 66.89,90.84 116.51,90.84 116.51,82.07 78.05,80.68 82.43,21.49 			"/>
			<polygon class="st0" points="86.22,21.49 86.22,32.85 95.81,32.85 94.69,65.13 84.23,65.13 84.23,76.69 112.53,76.69 
				112.53,66.53 106.75,65.53 106.75,32.65 115.52,32.65 115.52,21.49 			"/>
			<polygon class="st0" points="98.97,5.34 98.97,17.3 125.68,17.3 122.49,76.69 136.24,76.69 139.43,16.7 180.09,16.7 180.09,5.15 
							"/>
			<path class="st0" d="M180.88,90.84l-4.59-69.35h-25.9l-4.79,60.78l-24.31,0.4v8.17h35.46v-9.76h11.97v9.76H180.88z M157.36,72.3
				l2.6-41.05h5.97l2.2,41.05H157.36z"/>
		</g>
	</g>
	<g>
		<polygon class="st1" points="6.9,2.16 3.12,87.85 58.52,87.85 58.52,77.09 14.68,75.5 20.65,2.16 		"/>
		<polygon class="st1" points="24.24,2.16 22.45,69.32 58.52,69.32 62.31,14.12 91.7,14.12 91.7,2.16 50.35,2.16 47.76,57.76 
			34.6,57.76 38.39,2.16 		"/>
		<polygon class="st1" points="66.89,18.5 63.9,87.85 113.52,87.85 113.52,79.09 75.06,77.69 79.45,18.5 		"/>
		<polygon class="st1" points="83.23,18.5 83.23,29.86 92.82,29.86 91.7,62.15 81.24,62.15 81.24,73.7 109.54,73.7 109.54,63.54 
			103.76,62.54 103.76,29.66 112.53,29.66 112.53,18.5 		"/>
		<polygon class="st1" points="95.99,2.36 95.99,14.32 122.69,14.32 119.5,73.7 133.25,73.7 136.44,13.72 177.1,13.72 177.1,2.16 		
			"/>
		<path class="st1" d="M177.9,87.85l-4.59-69.35h-25.9l-4.79,60.78l-24.31,0.4v8.17h35.46v-9.76h11.97v9.76H177.9z M154.37,69.32
			l2.6-41.05h5.97l2.2,41.05H154.37z"/>
	</g>
</g>
</svg>
