<?xml version="1.0" encoding="utf-8"?>
<!-- Generator: Adobe Illustrator 25.4.1, SVG Export Plug-In . SVG Version: 6.00 Build 0)  -->
<svg version="1.1" id="Capa_1" xmlns="http://www.w3.org/2000/svg" xmlns:xlink="http://www.w3.org/1999/xlink" x="0px" y="0px"
	 viewBox="0 0 237 237" style="enable-background:new 0 0 237 237;" xml:space="preserve">
<style type="text/css">
	.st0{clip-path:url(#SVGID_00000021107074561829726430000018304426865614843267_);fill:#8BD3DD;}
	.st1{clip-path:url(#SVGID_00000021107074561829726430000018304426865614843267_);fill:#F582AE;}
	.st2{clip-path:url(#SVGID_00000021107074561829726430000018304426865614843267_);}
	.st3{fill:none;stroke:#F582AE;stroke-width:5.8838;stroke-miterlimit:10;}
	.st4{fill:none;stroke:#F582AE;stroke-width:6.8645;stroke-miterlimit:10;}
	.st5{fill:#FEF6E4;enable-background:new    ;}
	.st6{fill:none;stroke:#8BD3DD;stroke-width:7.7976;stroke-miterlimit:10;}
	.st7{fill:#FEF6E4;stroke:#8BD3DD;stroke-width:7.7976;stroke-miterlimit:10;}
	.st8{fill:#F582AE;}
	.st9{fill:none;stroke:#F582AE;stroke-width:2.5992;stroke-miterlimit:10;}
	.st10{fill:#8BD3DD;stroke:#F582AE;stroke-width:4.505;stroke-linecap:round;stroke-linejoin:round;stroke-miterlimit:10;}
	.st11{fill:#8BD3DD;stroke:#F582AE;stroke-width:4.1304;stroke-linecap:round;stroke-linejoin:round;stroke-miterlimit:10;}
	.st12{fill:none;stroke:#001858;stroke-width:4.2423;stroke-miterlimit:10;}
	.st13{clip-path:url(#SVGID_00000022543916270558658400000015768246547747192229_);fill:#F582AE;}
	
		.st14{clip-path:url(#SVGID_00000022543916270558658400000015768246547747192229_);fill:#FEF6E4;stroke:#8BD3DD;stroke-width:3.8601;stroke-miterlimit:10;}
	
		.st15{clip-path:url(#SVGID_00000022543916270558658400000015768246547747192229_);fill:none;stroke:#8BD3DD;stroke-width:3.8601;stroke-miterlimit:10;}
	
		.st16{clip-path:url(#SVGID_00000022543916270558658400000015768246547747192229_);fill:none;stroke:#8BD3DD;stroke-width:1.93;stroke-miterlimit:10;}
	
		.st17{clip-path:url(#SVGID_00000022543916270558658400000015768246547747192229_);fill:#F3D2C1;stroke:#F3D2C1;stroke-width:1.93;stroke-miterlimit:10;}
	
		.st18{clip-path:url(#SVGID_00000022543916270558658400000015768246547747192229_);fill:none;stroke:#8BD3DD;stroke-width:10.6575;stroke-miterlimit:10;}
	
		.st19{clip-path:url(#SVGID_00000022543916270558658400000015768246547747192229_);fill:none;stroke:#8BD3DD;stroke-width:7.8978;stroke-miterlimit:10;}
	
		.st20{clip-path:url(#SVGID_00000022543916270558658400000015768246547747192229_);fill:none;stroke:#8BD3DD;stroke-width:5.7901;stroke-miterlimit:10;}
	
		.st21{clip-path:url(#SVGID_00000022543916270558658400000015768246547747192229_);fill:none;stroke:#F582AE;stroke-width:1.9236;stroke-miterlimit:10;}
	
		.st22{clip-path:url(#SVGID_00000022543916270558658400000015768246547747192229_);fill:none;stroke:#F582AE;stroke-width:1.93;stroke-miterlimit:10;}
	
		.st23{clip-path:url(#SVGID_00000022543916270558658400000015768246547747192229_);fill:#F582AE;stroke:#F582AE;stroke-width:1.93;stroke-miterlimit:10;}
	
		.st24{clip-path:url(#SVGID_00000022543916270558658400000015768246547747192229_);fill:none;stroke:#F582AE;stroke-width:2.2072;stroke-miterlimit:10;}
	.st25{fill:none;stroke:#001858;stroke-width:4.2812;stroke-miterlimit:10;}
	.st26{clip-path:url(#SVGID_00000060742070476780487400000003579235170290546864_);fill:#8BD3DD;}
	.st27{clip-path:url(#SVGID_00000060742070476780487400000003579235170290546864_);}
	.st28{fill:#FEF6E4;stroke:#F582AE;stroke-width:3.319;stroke-linecap:round;stroke-linejoin:round;stroke-miterlimit:10;}
	.st29{fill:#F582AE;stroke:#F582AE;stroke-width:4.4495;stroke-miterlimit:10;}
	.st30{fill:#FEF6E4;stroke:#F582AE;stroke-width:3.7274;stroke-miterlimit:10;}
	.st31{fill:#FEF6E4;stroke:#FEF6E4;stroke-width:3.319;stroke-miterlimit:10;}
	.st32{fill:#FEF6E4;stroke:#F582AE;stroke-width:3.319;stroke-miterlimit:10;}
	.st33{fill:none;stroke:#F582AE;stroke-width:3.319;stroke-linecap:round;stroke-linejoin:round;stroke-miterlimit:10;}
	
		.st34{clip-path:url(#SVGID_00000060742070476780487400000003579235170290546864_);fill:none;stroke:#F582AE;stroke-width:3.319;stroke-miterlimit:10;}
	.st35{clip-path:url(#SVGID_00000083089519813406662010000004880987965459540380_);fill:#F582AE;}
	.st36{clip-path:url(#SVGID_00000083089519813406662010000004880987965459540380_);}
	.st37{fill:#8BD3DD;}
	.st38{fill:#FEF6E4;}
	.st39{fill:#F3D2C1;}
	.st40{fill:#001858;}
</style>
<g>
	<g>
		<defs>
			<ellipse id="SVGID_1_" cx="118.5" cy="118.5" rx="102.56" ry="103.53"/>
		</defs>
		<clipPath id="SVGID_00000089542483188803141060000000999276101114159232_">
			<use xlink:href="#SVGID_1_"  style="overflow:visible;"/>
		</clipPath>
		
			<ellipse style="clip-path:url(#SVGID_00000089542483188803141060000000999276101114159232_);fill:#8BD3DD;" cx="118.5" cy="118.5" rx="102.56" ry="103.53"/>
		
			<ellipse style="clip-path:url(#SVGID_00000089542483188803141060000000999276101114159232_);fill:#F582AE;" cx="58.39" cy="37.16" rx="6.8" ry="6.86"/>
		
			<ellipse style="clip-path:url(#SVGID_00000089542483188803141060000000999276101114159232_);fill:#F582AE;" cx="93.19" cy="208.39" rx="6.8" ry="6.86"/>
		
			<ellipse style="clip-path:url(#SVGID_00000089542483188803141060000000999276101114159232_);fill:#F582AE;" cx="200.21" cy="154.95" rx="6.8" ry="6.86"/>
		
			<ellipse style="clip-path:url(#SVGID_00000089542483188803141060000000999276101114159232_);fill:#F582AE;" cx="40.98" cy="148.54" rx="6.8" ry="6.86"/>
		<g style="clip-path:url(#SVGID_00000089542483188803141060000000999276101114159232_);">
			<line class="st3" x1="43.56" y1="169.37" x2="43.56" y2="197.55"/>
			<line class="st3" x1="57.51" y1="183.46" x2="29.6" y2="183.46"/>
		</g>
		<g style="clip-path:url(#SVGID_00000089542483188803141060000000999276101114159232_);">
			<line class="st3" x1="136.92" y1="12.47" x2="136.92" y2="40.64"/>
			<line class="st3" x1="150.88" y1="26.55" x2="122.97" y2="26.55"/>
		</g>
		<g style="clip-path:url(#SVGID_00000089542483188803141060000000999276101114159232_);">
			<line class="st3" x1="208.47" y1="81.21" x2="208.47" y2="109.38"/>
			<line class="st3" x1="222.43" y1="95.3" x2="194.52" y2="95.3"/>
		</g>
		<g style="clip-path:url(#SVGID_00000089542483188803141060000000999276101114159232_);">
			<line class="st4" x1="160.18" y1="189.16" x2="160.18" y2="222.03"/>
			<line class="st4" x1="176.46" y1="205.6" x2="143.9" y2="205.6"/>
		</g>
		<g style="clip-path:url(#SVGID_00000089542483188803141060000000999276101114159232_);">
			<line class="st3" x1="26.61" y1="95.3" x2="26.61" y2="123.47"/>
			<line class="st3" x1="40.57" y1="109.38" x2="12.66" y2="109.38"/>
		</g>
		<g style="clip-path:url(#SVGID_00000089542483188803141060000000999276101114159232_);">
			<path class="st5" d="M162.48,108.7c0-24.92-20.01-45.12-44.69-45.12c-24.68,0-44.69,20.2-44.69,45.12c0,14.8,7.09,27.9,18,36.12
				v13.66h53.39v-13.66C155.39,136.6,162.48,123.5,162.48,108.7z"/>
			<line class="st6" x1="117.78" y1="158.93" x2="117.78" y2="123.15"/>
			<ellipse class="st7" cx="117.78" cy="109.88" rx="10.68" ry="10.78"/>
			<ellipse class="st8" cx="117.78" cy="50.31" rx="5.03" ry="5.08"/>
			<ellipse class="st8" cx="175.03" cy="108.77" rx="5.03" ry="5.08"/>
			<ellipse class="st8" cx="60.98" cy="108.77" rx="5.03" ry="5.08"/>
			<g>
				<line class="st9" x1="88.72" y1="52.25" x2="88.72" y2="64.69"/>
				<line class="st9" x1="94.89" y1="58.47" x2="82.56" y2="58.47"/>
			</g>
			<g>
				<line class="st9" x1="147.18" y1="52.25" x2="147.18" y2="64.69"/>
				<line class="st9" x1="153.34" y1="58.47" x2="141.01" y2="58.47"/>
			</g>
			<g>
				<line class="st9" x1="167.98" y1="73.25" x2="167.98" y2="85.7"/>
				<line class="st9" x1="174.15" y1="79.47" x2="161.82" y2="79.47"/>
			</g>
			<g>
				<line class="st9" x1="68.25" y1="73.25" x2="68.25" y2="85.7"/>
				<line class="st9" x1="74.41" y1="79.47" x2="62.08" y2="79.47"/>
			</g>
			<g>
				<line class="st9" x1="167.98" y1="131.84" x2="167.98" y2="144.28"/>
				<line class="st9" x1="174.15" y1="138.06" x2="161.82" y2="138.06"/>
			</g>
			<g>
				<line class="st9" x1="68.25" y1="131.84" x2="68.25" y2="144.28"/>
				<line class="st9" x1="74.41" y1="138.06" x2="62.08" y2="138.06"/>
			</g>
			<path class="st10" d="M145.07,172.38H90.5c-1.62,0-2.93-1.31-2.93-2.93v-7.99c0-1.62,1.31-2.93,2.93-2.93h54.57
				c1.62,0,2.93,1.31,2.93,2.93v7.99C148.01,171.06,146.69,172.38,145.07,172.38z"/>
			<path class="st11" d="M138.89,184.4H96.68c-1.49,0-2.69-1.2-2.69-2.69v-6.27c0-1.49,1.2-2.69,2.69-2.69h42.21
				c1.49,0,2.69,1.2,2.69,2.69v6.27C141.58,183.2,140.37,184.4,138.89,184.4z"/>
		</g>
	</g>
	<ellipse class="st12" cx="118.5" cy="118.5" rx="113.75" ry="114.83"/>
</g>
</svg>
