<?xml version="1.0" encoding="utf-8"?>
<!-- Generator: Adobe Illustrator 25.4.1, SVG Export Plug-In . SVG Version: 6.00 Build 0)  -->
<svg version="1.1" id="Capa_1" xmlns="http://www.w3.org/2000/svg" xmlns:xlink="http://www.w3.org/1999/xlink" x="0px" y="0px"
	 viewBox="0 0 237 237" style="enable-background:new 0 0 237 237;" xml:space="preserve">
<style type="text/css">
	.st0{clip-path:url(#SVGID_00000110463786070634959600000013438027535125691298_);fill:#8BD3DD;}
	.st1{clip-path:url(#SVGID_00000110463786070634959600000013438027535125691298_);fill:#F582AE;}
	.st2{clip-path:url(#SVGID_00000110463786070634959600000013438027535125691298_);}
	.st3{fill:none;stroke:#F582AE;stroke-width:5.8838;stroke-miterlimit:10;}
	.st4{fill:none;stroke:#F582AE;stroke-width:6.8645;stroke-miterlimit:10;}
	.st5{fill:#FEF6E4;enable-background:new    ;}
	.st6{fill:none;stroke:#8BD3DD;stroke-width:7.7976;stroke-miterlimit:10;}
	.st7{fill:#FEF6E4;stroke:#8BD3DD;stroke-width:7.7976;stroke-miterlimit:10;}
	.st8{fill:#F582AE;}
	.st9{fill:none;stroke:#F582AE;stroke-width:2.5992;stroke-miterlimit:10;}
	.st10{fill:#8BD3DD;stroke:#F582AE;stroke-width:4.505;stroke-linecap:round;stroke-linejoin:round;stroke-miterlimit:10;}
	.st11{fill:#8BD3DD;stroke:#F582AE;stroke-width:4.1304;stroke-linecap:round;stroke-linejoin:round;stroke-miterlimit:10;}
	.st12{fill:none;stroke:#001858;stroke-width:4.2423;stroke-miterlimit:10;}
	.st13{clip-path:url(#SVGID_00000015324447043343250200000015472196899411887511_);fill:#F582AE;}
	
		.st14{clip-path:url(#SVGID_00000015324447043343250200000015472196899411887511_);fill:#FEF6E4;stroke:#8BD3DD;stroke-width:3.8601;stroke-miterlimit:10;}
	
		.st15{clip-path:url(#SVGID_00000015324447043343250200000015472196899411887511_);fill:none;stroke:#8BD3DD;stroke-width:3.8601;stroke-miterlimit:10;}
	
		.st16{clip-path:url(#SVGID_00000015324447043343250200000015472196899411887511_);fill:none;stroke:#8BD3DD;stroke-width:1.93;stroke-miterlimit:10;}
	
		.st17{clip-path:url(#SVGID_00000015324447043343250200000015472196899411887511_);fill:#F3D2C1;stroke:#F3D2C1;stroke-width:1.93;stroke-miterlimit:10;}
	
		.st18{clip-path:url(#SVGID_00000015324447043343250200000015472196899411887511_);fill:none;stroke:#8BD3DD;stroke-width:10.6575;stroke-miterlimit:10;}
	
		.st19{clip-path:url(#SVGID_00000015324447043343250200000015472196899411887511_);fill:none;stroke:#8BD3DD;stroke-width:7.8978;stroke-miterlimit:10;}
	
		.st20{clip-path:url(#SVGID_00000015324447043343250200000015472196899411887511_);fill:none;stroke:#8BD3DD;stroke-width:5.7901;stroke-miterlimit:10;}
	
		.st21{clip-path:url(#SVGID_00000015324447043343250200000015472196899411887511_);fill:none;stroke:#F582AE;stroke-width:1.9236;stroke-miterlimit:10;}
	
		.st22{clip-path:url(#SVGID_00000015324447043343250200000015472196899411887511_);fill:none;stroke:#F582AE;stroke-width:1.93;stroke-miterlimit:10;}
	
		.st23{clip-path:url(#SVGID_00000015324447043343250200000015472196899411887511_);fill:#F582AE;stroke:#F582AE;stroke-width:1.93;stroke-miterlimit:10;}
	
		.st24{clip-path:url(#SVGID_00000015324447043343250200000015472196899411887511_);fill:none;stroke:#F582AE;stroke-width:2.2072;stroke-miterlimit:10;}
	.st25{fill:none;stroke:#001858;stroke-width:4.2812;stroke-miterlimit:10;}
	.st26{clip-path:url(#SVGID_00000150062102079241663960000004220236075453488534_);fill:#8BD3DD;}
	.st27{clip-path:url(#SVGID_00000150062102079241663960000004220236075453488534_);}
	.st28{fill:#FEF6E4;stroke:#F582AE;stroke-width:3.319;stroke-linecap:round;stroke-linejoin:round;stroke-miterlimit:10;}
	.st29{fill:#F582AE;stroke:#F582AE;stroke-width:4.4495;stroke-miterlimit:10;}
	.st30{fill:#FEF6E4;stroke:#F582AE;stroke-width:3.7274;stroke-miterlimit:10;}
	.st31{fill:#FEF6E4;stroke:#FEF6E4;stroke-width:3.319;stroke-miterlimit:10;}
	.st32{fill:#FEF6E4;stroke:#F582AE;stroke-width:3.319;stroke-miterlimit:10;}
	.st33{fill:none;stroke:#F582AE;stroke-width:3.319;stroke-linecap:round;stroke-linejoin:round;stroke-miterlimit:10;}
	
		.st34{clip-path:url(#SVGID_00000150062102079241663960000004220236075453488534_);fill:none;stroke:#F582AE;stroke-width:3.319;stroke-miterlimit:10;}
	.st35{clip-path:url(#SVGID_00000101074241346279474710000000573903417948537766_);fill:#F582AE;}
	.st36{clip-path:url(#SVGID_00000101074241346279474710000000573903417948537766_);}
	.st37{fill:#8BD3DD;}
	.st38{fill:#FEF6E4;}
	.st39{fill:#F3D2C1;}
	.st40{fill:#001858;}
</style>
<g>
	<g>
		<defs>
			<ellipse id="SVGID_00000049180160347672666700000016362605318167766918_" cx="118.34" cy="118.5" rx="103.51" ry="104.47"/>
		</defs>
		<clipPath id="SVGID_00000116918255722591151600000010130943621736711094_">
			<use xlink:href="#SVGID_00000049180160347672666700000016362605318167766918_"  style="overflow:visible;"/>
		</clipPath>
		
			<ellipse style="clip-path:url(#SVGID_00000116918255722591151600000010130943621736711094_);fill:#F582AE;" cx="118.34" cy="118.5" rx="103.51" ry="104.47"/>
		<g style="clip-path:url(#SVGID_00000116918255722591151600000010130943621736711094_);">
			<rect x="16.14" y="212.81" class="st37" width="6.06" height="6.11"/>
			<rect x="16.14" y="14.7" class="st37" width="6.06" height="6.11"/>
			<rect x="105.32" y="104.4" class="st38" width="12.21" height="12.39"/>
			<rect x="86.88" y="85.8" class="st39" width="12.29" height="12.4"/>
			<rect x="74.59" y="98.2" class="st37" width="12.29" height="12.4"/>
			<rect x="99.17" y="73.45" class="st37" width="12.25" height="12.36"/>
			<rect x="111.42" y="61.17" class="st39" width="6.1" height="12.29"/>
			<rect x="62.34" y="110.6" class="st39" width="12.25" height="6.2"/>
			<polygon class="st37" points="50.08,116.79 50.08,92.04 68.47,92.04 68.47,79.67 43.95,79.67 43.95,116.79 			"/>
			<polygon class="st37" points="117.52,48.73 93,48.73 93,67.3 80.74,67.3 80.74,42.55 117.52,42.55 			"/>
			<polygon class="st39" points="56.21,54.92 62.34,73.48 80.74,79.67 74.6,61.11 			"/>
			<rect x="68.47" y="42.55" class="st37" width="6.13" height="6.19"/>
			<rect x="43.95" y="67.3" class="st37" width="6.13" height="6.19"/>
			<polygon class="st38" points="117.52,30.17 56.21,30.17 56.21,42.55 43.95,42.55 43.95,54.92 31.69,54.92 31.69,116.79 
				37.82,116.79 37.82,61.11 50.08,61.11 50.08,48.73 62.34,48.73 62.34,36.36 117.52,36.36 			"/>
			<rect x="31.69" y="42.55" class="st40" width="6.13" height="6.19"/>
			<rect x="43.95" y="30.17" class="st40" width="6.13" height="6.19"/>
			<rect x="31.69" y="30.17" class="st40" width="6.13" height="6.19"/>
			<rect x="25.55" y="11.61" class="st37" width="12.26" height="12.37"/>
			<rect x="50.08" y="11.61" class="st37" width="12.26" height="12.37"/>
			<rect x="74.6" y="11.61" class="st37" width="12.26" height="12.37"/>
			<rect x="99.13" y="11.61" class="st37" width="12.26" height="12.37"/>
			
				<rect x="117.52" y="104.4" transform="matrix(-1 -1.224647e-16 1.224647e-16 -1 247.2538 221.1996)" class="st38" width="12.21" height="12.39"/>
			
				<rect x="135.88" y="85.8" transform="matrix(-1 -1.224647e-16 1.224647e-16 -1 284.0439 184.0012)" class="st39" width="12.29" height="12.4"/>
			
				<rect x="148.17" y="98.2" transform="matrix(-1 -1.224647e-16 1.224647e-16 -1 308.627 208.8084)" class="st37" width="12.29" height="12.4"/>
			
				<rect x="123.63" y="73.45" transform="matrix(-1 -1.224647e-16 1.224647e-16 -1 259.5031 159.2683)" class="st37" width="12.25" height="12.36"/>
			
				<rect x="117.52" y="61.17" transform="matrix(-1 -1.224647e-16 1.224647e-16 -1 241.1503 134.6207)" class="st39" width="6.1" height="12.29"/>
			
				<rect x="160.46" y="110.6" transform="matrix(-1 -1.224647e-16 1.224647e-16 -1 333.1667 227.3953)" class="st39" width="12.25" height="6.2"/>
			<polygon class="st37" points="184.97,116.79 184.97,92.04 166.58,92.04 166.58,79.67 191.1,79.67 191.1,116.79 			"/>
			<polygon class="st37" points="117.53,48.73 142.05,48.73 142.05,67.3 154.31,67.3 154.31,42.55 117.53,42.55 			"/>
			<polygon class="st39" points="178.84,54.92 172.71,73.48 154.31,79.67 160.44,61.11 			"/>
			<rect x="160.44" y="42.55" class="st37" width="6.13" height="6.19"/>
			<rect x="184.97" y="67.3" class="st37" width="6.13" height="6.19"/>
			<polygon class="st38" points="117.53,30.17 178.84,30.17 178.84,42.55 191.1,42.55 191.1,54.92 203.36,54.92 203.36,116.79 
				197.23,116.79 197.23,61.11 184.97,61.11 184.97,48.73 172.71,48.73 172.71,36.36 117.53,36.36 			"/>
			<rect x="199.08" y="40.68" class="st40" width="6.13" height="6.19"/>
			<rect x="186.82" y="28.31" class="st40" width="6.13" height="6.19"/>
			<rect x="199.08" y="28.31" class="st40" width="6.13" height="6.19"/>
			<rect x="209.5" y="98.23" class="st37" width="12.26" height="12.37"/>
			<rect x="209.5" y="73.48" class="st37" width="12.26" height="12.37"/>
			<rect x="209.5" y="48.73" class="st37" width="12.26" height="12.37"/>
			<rect x="209.5" y="23.99" class="st37" width="12.26" height="12.37"/>
			<rect x="197.23" y="11.61" class="st37" width="12.26" height="12.37"/>
			<rect x="172.71" y="11.61" class="st37" width="12.26" height="12.37"/>
			<rect x="148.18" y="11.61" class="st37" width="12.26" height="12.37"/>
			<rect x="123.66" y="11.61" class="st37" width="12.26" height="12.37"/>
			<rect x="215.63" y="11.61" class="st37" width="6.13" height="6.19"/>
			<rect x="105.32" y="116.79" class="st38" width="12.21" height="12.39"/>
			<rect x="86.88" y="135.39" class="st39" width="12.29" height="12.4"/>
			<rect x="74.59" y="122.98" class="st37" width="12.29" height="12.4"/>
			<rect x="99.17" y="147.78" class="st37" width="12.25" height="12.36"/>
			<rect x="111.42" y="160.14" class="st39" width="6.1" height="12.29"/>
			<rect x="62.34" y="116.79" class="st39" width="12.25" height="6.2"/>
			<polygon class="st37" points="50.08,116.8 50.08,141.55 68.47,141.55 68.47,153.92 43.95,153.92 43.95,116.8 			"/>
			<polygon class="st37" points="117.52,184.86 93,184.86 93,166.29 80.74,166.29 80.74,191.04 117.52,191.04 			"/>
			<polygon class="st39" points="56.21,178.67 62.34,160.11 80.74,153.92 74.6,172.48 			"/>
			<rect x="68.47" y="184.86" class="st37" width="6.13" height="6.19"/>
			<rect x="43.95" y="160.11" class="st37" width="6.13" height="6.19"/>
			<polygon class="st38" points="117.52,203.42 56.21,203.42 56.21,191.04 43.95,191.04 43.95,178.67 31.69,178.67 31.69,116.8 
				37.82,116.8 37.82,172.48 50.08,172.48 50.08,184.86 62.34,184.86 62.34,197.23 117.52,197.23 			"/>
			<rect x="31.69" y="182.99" class="st40" width="6.13" height="6.19"/>
			<rect x="44.8" y="197.23" class="st40" width="6.13" height="6.19"/>
			<rect x="32.11" y="197.23" class="st40" width="6.13" height="6.19"/>
			<rect x="25.55" y="209.6" class="st37" width="12.26" height="12.37"/>
			<rect x="50.08" y="209.6" class="st37" width="12.26" height="12.37"/>
			<rect x="74.6" y="209.6" class="st37" width="12.26" height="12.37"/>
			<rect x="99.13" y="209.6" class="st37" width="12.26" height="12.37"/>
			<rect x="212.6" y="212.73" class="st37" width="6.06" height="6.11"/>
			
				<rect x="117.52" y="116.79" transform="matrix(-1 -1.224647e-16 1.224647e-16 -1 247.2538 245.9796)" class="st38" width="12.21" height="12.39"/>
			
				<rect x="135.88" y="135.39" transform="matrix(-1 -1.224647e-16 1.224647e-16 -1 284.0439 283.1781)" class="st39" width="12.29" height="12.4"/>
			
				<rect x="148.17" y="122.98" transform="matrix(-1 -1.224647e-16 1.224647e-16 -1 308.627 258.3708)" class="st37" width="12.29" height="12.4"/>
			
				<rect x="123.63" y="147.78" transform="matrix(-1 -1.224647e-16 1.224647e-16 -1 259.5031 307.911)" class="st37" width="12.25" height="12.36"/>
			
				<rect x="117.52" y="160.14" transform="matrix(-1 -1.224647e-16 1.224647e-16 -1 241.1503 332.5585)" class="st39" width="6.1" height="12.29"/>
			
				<rect x="160.46" y="116.79" transform="matrix(-1 -1.224647e-16 1.224647e-16 -1 333.1667 239.784)" class="st39" width="12.25" height="6.2"/>
			<polygon class="st37" points="184.97,116.8 184.97,141.55 166.58,141.55 166.58,153.92 191.1,153.92 191.1,116.8 			"/>
			<polygon class="st37" points="117.53,184.86 142.05,184.86 142.05,166.29 154.31,166.29 154.31,191.04 117.53,191.04 			"/>
			<polygon class="st39" points="178.84,178.67 172.71,160.11 154.31,153.92 160.44,172.48 			"/>
			<rect x="160.44" y="184.86" class="st37" width="6.13" height="6.19"/>
			<rect x="184.97" y="160.11" class="st37" width="6.13" height="6.19"/>
			<polygon class="st38" points="117.53,203.42 178.84,203.42 178.84,191.04 191.1,191.04 191.1,178.67 203.36,178.67 203.36,116.8 
				197.23,116.8 197.23,172.48 184.97,172.48 184.97,184.86 172.71,184.86 172.71,197.23 117.53,197.23 			"/>
			<rect x="199.08" y="182.99" class="st40" width="6.13" height="6.19"/>
			<rect x="186.82" y="195.36" class="st40" width="6.13" height="6.19"/>
			<rect x="199.08" y="195.36" class="st40" width="6.13" height="6.19"/>
			<rect x="209.5" y="122.98" class="st37" width="12.26" height="12.37"/>
			<rect x="209.5" y="147.73" class="st37" width="12.26" height="12.37"/>
			<rect x="209.5" y="172.48" class="st37" width="12.26" height="12.37"/>
			<rect x="209.5" y="197.23" class="st37" width="12.26" height="12.37"/>
			<rect x="197.23" y="209.6" class="st37" width="12.26" height="12.37"/>
			<rect x="172.71" y="209.6" class="st37" width="12.26" height="12.37"/>
			<rect x="148.18" y="209.6" class="st37" width="12.26" height="12.37"/>
			<rect x="123.66" y="209.6" class="st37" width="12.26" height="12.37"/>
			<rect x="13.29" y="23.99" class="st37" width="12.26" height="12.37"/>
			<rect x="13.29" y="48.73" class="st37" width="12.26" height="12.37"/>
			<rect x="13.29" y="73.48" class="st37" width="12.26" height="12.37"/>
			<rect x="13.29" y="98.23" class="st37" width="12.26" height="12.37"/>
			<rect x="13.29" y="122.98" class="st37" width="12.26" height="12.37"/>
			<rect x="13.29" y="147.73" class="st37" width="12.26" height="12.37"/>
			<rect x="13.29" y="172.48" class="st37" width="12.26" height="12.37"/>
			<rect x="13.29" y="197.23" class="st37" width="12.26" height="12.37"/>
		</g>
	</g>
	<ellipse class="st25" cx="118.5" cy="118.5" rx="114.8" ry="115.87"/>
</g>
</svg>
