<?xml version="1.0" encoding="utf-8"?>
<!-- Generator: Adobe Illustrator 26.0.1, SVG Export Plug-In . SVG Version: 6.00 Build 0)  -->
<svg version="1.1" id="Capa_1" xmlns="http://www.w3.org/2000/svg" xmlns:xlink="http://www.w3.org/1999/xlink" x="0px" y="0px"
	 viewBox="0 0 80 80" style="enable-background:new 0 0 80 80;" xml:space="preserve">
<style type="text/css">
	.st0{fill:#F582AE;}
	.st1{fill:#F3D2C1;}
</style>
<g>
	<circle class="st0" cx="40" cy="40" r="38.15"/>
	<g>
		<path class="st1" d="M35.38,38.28c0.56,0.11,1.04,0.17,1.51,0.3c1.35,0.37,2.32,1.23,2.98,2.43c0.76,1.38,1.06,2.88,1.11,4.44
			c0.03,1.19-0.02,2.38-0.32,3.54c-0.49,1.88-1.49,3.4-3.08,4.55c-1.51,1.09-3.24,1.59-5.04,1.88c-0.46,0.07-0.94,0.1-1.41,0.1
			c-5.44,0.01-10.89,0-16.33,0.01c-0.26,0-0.34-0.08-0.33-0.32c0.01-0.08,0-0.16,0-0.25c0-10.19,0-20.39,0-30.58
			c0-0.55,0-0.55,0.55-0.55c5.21,0,10.42-0.01,15.63,0.01c1.55,0,3.08,0.16,4.52,0.78c2.07,0.9,3.54,2.37,4.25,4.54
			c0.53,1.61,0.65,3.26,0.29,4.91c-0.47,2.11-1.79,3.47-3.87,4.08C35.71,38.18,35.58,38.22,35.38,38.28z M26.49,49.89
			C26.49,49.89,26.49,49.89,26.49,49.89c1.33,0,2.66,0,3.99,0c0.15,0,0.31-0.02,0.46-0.03c1.57-0.1,2.66-0.93,3.11-2.42
			c0.29-0.97,0.29-1.97,0.12-2.97c-0.31-1.83-1.66-3.07-3.52-3.06c-2.84,0.01-5.68,0.01-8.51-0.01c-0.32,0-0.42,0.08-0.42,0.41
			c0.01,2.56,0.01,5.11,0,7.67c0,0.33,0.11,0.42,0.43,0.41C23.59,49.88,25.04,49.89,26.49,49.89z M26.52,29.47
			C26.52,29.47,26.52,29.47,26.52,29.47c-1.48,0-2.96,0-4.44,0c-0.24,0-0.37,0.05-0.36,0.33c0.01,2.13,0.01,4.26,0,6.4
			c0,0.28,0.1,0.35,0.38,0.35c1.78-0.01,3.55,0,5.33-0.01c1.23-0.01,2.47-0.01,3.7-0.08c0.81-0.05,1.38-0.54,1.66-1.29
			c0.49-1.3,0.52-2.63,0.16-3.98c-0.25-0.94-1.19-1.78-2.36-1.73C29.23,29.52,27.87,29.47,26.52,29.47z"/>
		<path class="st1" d="M57.25,45.65c-2.62,0-5.23,0-7.85-0.01c-0.3,0-0.35,0.09-0.33,0.37c0.06,1.1,0.28,2.15,0.92,3.07
			c0.74,1.07,1.81,1.67,3.06,1.92c1.53,0.31,3.06,0.24,4.51-0.35c1.17-0.48,1.95-1.32,2.13-2.64c0.01-0.09,0.17-0.23,0.26-0.23
			c1.69-0.01,3.37-0.01,5.06-0.01c0.2,0,0.26,0.08,0.25,0.28c-0.04,1.36-0.32,2.67-0.99,3.85c-0.71,1.25-1.76,2.17-3.02,2.84
			c-1.8,0.95-3.74,1.32-5.74,1.41c-2.05,0.09-4.07-0.05-6.03-0.72c-1.95-0.67-3.6-1.78-4.85-3.43c-1.35-1.78-2.02-3.82-2.27-6
			c-0.24-2.15,0.04-4.25,0.73-6.3c0.46-1.36,1.11-2.62,2-3.75c0.82-1.03,1.81-1.87,2.96-2.53c1.72-0.98,3.58-1.41,5.53-1.5
			c1.54-0.07,3.06,0.01,4.55,0.43c1.5,0.41,2.84,1.09,3.98,2.17c1.49,1.41,2.37,3.16,2.9,5.12c0.5,1.85,0.59,3.74,0.51,5.64
			c-0.01,0.27-0.09,0.37-0.38,0.36C62.5,45.63,59.87,45.64,57.25,45.65C57.25,45.64,57.25,45.64,57.25,45.65z M54.22,41.41
			C54.22,41.41,54.22,41.41,54.22,41.41c1.6,0,3.2-0.01,4.79,0c0.28,0,0.4-0.08,0.35-0.36c-0.05-0.28-0.07-0.56-0.13-0.83
			c-0.29-1.2-0.81-2.3-1.91-2.93c-1.93-1.11-3.91-1.04-5.79,0.1c-1.35,0.81-2.05,2.12-2.44,3.62c-0.1,0.38-0.09,0.4,0.3,0.4
			C51,41.41,52.61,41.41,54.22,41.41z"/>
		<path class="st1" d="M54.14,29.6c-2.05,0-4.1-0.01-6.15,0.01c-0.28,0-0.38-0.07-0.38-0.35c0.01-1.07,0.01-2.14,0-3.21
			c0-0.25,0.07-0.35,0.34-0.35c4.13,0.01,8.27,0.01,12.4,0c0.27,0,0.34,0.09,0.34,0.35c-0.01,1.06-0.02,2.12,0,3.18
			c0.01,0.33-0.12,0.39-0.41,0.39C58.24,29.6,56.19,29.6,54.14,29.6z"/>
	</g>
</g>
</svg>
