<?xml version="1.0" encoding="utf-8"?>
<!-- Generator: Adobe Illustrator 26.0.1, SVG Export Plug-In . SVG Version: 6.00 Build 0)  -->
<svg version="1.1" id="Capa_1" xmlns="http://www.w3.org/2000/svg" xmlns:xlink="http://www.w3.org/1999/xlink" x="0px" y="0px"
	 viewBox="0 0 80 80" style="enable-background:new 0 0 80 80;" xml:space="preserve">
<style type="text/css">
	.st0{fill:#F582AE;}
	.st1{fill:#F3D2C1;}
</style>
<g>
	<circle class="st0" cx="40" cy="40" r="38.15"/>
	<g>
		<g>
			<path class="st1" d="M65.59,39.99c0,3.39,0.04,6.79-0.01,10.18c-0.12,8.87-6.69,15.38-15.59,15.43c-6.64,0.04-13.29,0.04-19.93,0
				c-8.46-0.06-15.04-5.97-15.43-14.42c-0.34-7.49-0.31-15.03,0.02-22.52c0.33-7.49,6.06-13.53,13.53-13.95
				c7.91-0.45,15.9-0.47,23.81,0.01c7.79,0.48,13.4,7.03,13.58,14.87C65.65,33.05,65.59,36.52,65.59,39.99z M60.7,40.01
				c0-3.39,0.03-6.78-0.01-10.18c-0.07-5.62-4.3-10.22-9.87-10.35c-7.14-0.17-14.29-0.16-21.43-0.01
				c-5.49,0.12-9.85,4.56-9.94,10.05c-0.12,7-0.11,14,0,21c0.08,5.67,4.59,10.11,10.29,10.18c6.86,0.08,13.71,0.08,20.57,0
				c5.9-0.06,10.34-4.6,10.4-10.52C60.73,46.79,60.7,43.4,60.7,40.01z"/>
			<path class="st1" d="M40.16,52.62c-6.96-0.03-12.51-5.61-12.5-12.55c0.02-7.06,5.65-12.64,12.71-12.6
				c6.92,0.04,12.49,5.64,12.51,12.59C52.9,47.06,47.24,52.65,40.16,52.62z M40.32,48.03c4.4-0.01,7.96-3.62,7.93-8.02
				c-0.04-4.42-3.63-7.95-8.04-7.92c-4.36,0.03-8.02,3.72-7.98,8.04C32.26,44.49,35.91,48.05,40.32,48.03z"/>
			<path class="st1" d="M56.62,26.71c-0.04,1.64-1.43,2.96-3.1,2.94c-1.71-0.03-2.97-1.33-2.94-3.05c0.03-1.7,1.34-2.97,3.05-2.94
				C55.29,23.68,56.65,25.08,56.62,26.71z"/>
		</g>
	</g>
</g>
</svg>
