<?xml version="1.0" encoding="utf-8"?>
<!-- Generator: Adobe Illustrator 26.0.1, SVG Export Plug-In . SVG Version: 6.00 Build 0)  -->
<svg version="1.1" id="Capa_1" xmlns="http://www.w3.org/2000/svg" xmlns:xlink="http://www.w3.org/1999/xlink" x="0px" y="0px"
	 viewBox="0 0 80 80" style="enable-background:new 0 0 80 80;" xml:space="preserve">
<style type="text/css">
	.st0{fill:#F582AE;}
	.st1{fill:#F3D2C1;}
</style>
<g>
	<path class="st0" d="M78.15,40c0,19.6-14.78,35.75-33.8,37.9c-1.43,0.16-2.88,0.25-4.35,0.25c-3.26,0-6.42-0.41-9.43-1.17
		C14.06,72.77,1.85,57.81,1.85,40C1.85,18.93,18.93,1.85,40,1.85S78.15,18.93,78.15,40z"/>
	<path class="st1" d="M44.32,29.62c-0.01,2.44,0,4.88,0,7.6h12.03c-0.62,4.08-1.14,7.85-1.83,11.58c-0.08,0.45-1.09,1.01-1.69,1.04
		c-2.72,0.11-5.45,0.05-8.39,0.05c-0.05,0.96-0.12,1.73-0.12,2.49c-0.01,8.51-0.04,17.02,0.03,25.52c-1.43,0.16-2.88,0.25-4.35,0.25
		c-3.26,0-6.42-0.41-9.43-1.17c0.06-8.36,0.03-16.71,0.03-25.07c0-0.57-0.06-1.14-0.11-2.02H19.76V37.27H30.6
		c0-3.26-0.09-6.28,0.03-9.29c0.07-2,0.23-4.05,0.71-5.99c1.48-5.97,5.36-9.61,11.38-10.82c4.67-0.95,9.32-0.33,14.06,0.43v10.81
		c-1.79,0-3.56,0-5.33,0C46.57,22.45,44.34,24.69,44.32,29.62z"/>
</g>
</svg>
