<?xml version="1.0" encoding="utf-8"?>
<!-- Generator: Adobe Illustrator 25.4.1, SVG Export Plug-In . SVG Version: 6.00 Build 0)  -->
<svg version="1.1" id="Capa_1" xmlns="http://www.w3.org/2000/svg" xmlns:xlink="http://www.w3.org/1999/xlink" x="0px" y="0px"
	 viewBox="0 0 237 237" style="enable-background:new 0 0 237 237;" xml:space="preserve">
<style type="text/css">
	.st0{clip-path:url(#SVGID_00000114785685286279165390000011967506314333489577_);fill:#8BD3DD;}
	.st1{clip-path:url(#SVGID_00000114785685286279165390000011967506314333489577_);fill:#F582AE;}
	.st2{clip-path:url(#SVGID_00000114785685286279165390000011967506314333489577_);}
	.st3{fill:none;stroke:#F582AE;stroke-width:5.8838;stroke-miterlimit:10;}
	.st4{fill:none;stroke:#F582AE;stroke-width:6.8645;stroke-miterlimit:10;}
	.st5{fill:#FEF6E4;enable-background:new    ;}
	.st6{fill:none;stroke:#8BD3DD;stroke-width:7.7976;stroke-miterlimit:10;}
	.st7{fill:#FEF6E4;stroke:#8BD3DD;stroke-width:7.7976;stroke-miterlimit:10;}
	.st8{fill:#F582AE;}
	.st9{fill:none;stroke:#F582AE;stroke-width:2.5992;stroke-miterlimit:10;}
	.st10{fill:#8BD3DD;stroke:#F582AE;stroke-width:4.505;stroke-linecap:round;stroke-linejoin:round;stroke-miterlimit:10;}
	.st11{fill:#8BD3DD;stroke:#F582AE;stroke-width:4.1304;stroke-linecap:round;stroke-linejoin:round;stroke-miterlimit:10;}
	.st12{fill:none;stroke:#001858;stroke-width:4.2423;stroke-miterlimit:10;}
	.st13{clip-path:url(#SVGID_00000000204361390376677740000013981947848774565551_);fill:#F582AE;}
	
		.st14{clip-path:url(#SVGID_00000000204361390376677740000013981947848774565551_);fill:#FEF6E4;stroke:#8BD3DD;stroke-width:3.8601;stroke-miterlimit:10;}
	
		.st15{clip-path:url(#SVGID_00000000204361390376677740000013981947848774565551_);fill:none;stroke:#8BD3DD;stroke-width:3.8601;stroke-miterlimit:10;}
	
		.st16{clip-path:url(#SVGID_00000000204361390376677740000013981947848774565551_);fill:none;stroke:#8BD3DD;stroke-width:1.93;stroke-miterlimit:10;}
	
		.st17{clip-path:url(#SVGID_00000000204361390376677740000013981947848774565551_);fill:#F3D2C1;stroke:#F3D2C1;stroke-width:1.93;stroke-miterlimit:10;}
	
		.st18{clip-path:url(#SVGID_00000000204361390376677740000013981947848774565551_);fill:none;stroke:#8BD3DD;stroke-width:10.6575;stroke-miterlimit:10;}
	
		.st19{clip-path:url(#SVGID_00000000204361390376677740000013981947848774565551_);fill:none;stroke:#8BD3DD;stroke-width:7.8978;stroke-miterlimit:10;}
	
		.st20{clip-path:url(#SVGID_00000000204361390376677740000013981947848774565551_);fill:none;stroke:#8BD3DD;stroke-width:5.7901;stroke-miterlimit:10;}
	
		.st21{clip-path:url(#SVGID_00000000204361390376677740000013981947848774565551_);fill:none;stroke:#F582AE;stroke-width:1.9236;stroke-miterlimit:10;}
	
		.st22{clip-path:url(#SVGID_00000000204361390376677740000013981947848774565551_);fill:none;stroke:#F582AE;stroke-width:1.93;stroke-miterlimit:10;}
	
		.st23{clip-path:url(#SVGID_00000000204361390376677740000013981947848774565551_);fill:#F582AE;stroke:#F582AE;stroke-width:1.93;stroke-miterlimit:10;}
	
		.st24{clip-path:url(#SVGID_00000000204361390376677740000013981947848774565551_);fill:none;stroke:#F582AE;stroke-width:2.2072;stroke-miterlimit:10;}
	.st25{fill:none;stroke:#001858;stroke-width:4.2812;stroke-miterlimit:10;}
	.st26{clip-path:url(#SVGID_00000173850483065556747950000004223246093967753401_);fill:#8BD3DD;}
	.st27{clip-path:url(#SVGID_00000173850483065556747950000004223246093967753401_);}
	.st28{fill:#FEF6E4;stroke:#F582AE;stroke-width:3.319;stroke-linecap:round;stroke-linejoin:round;stroke-miterlimit:10;}
	.st29{fill:#F582AE;stroke:#F582AE;stroke-width:4.4495;stroke-miterlimit:10;}
	.st30{fill:#FEF6E4;stroke:#F582AE;stroke-width:3.7274;stroke-miterlimit:10;}
	.st31{fill:#FEF6E4;stroke:#FEF6E4;stroke-width:3.319;stroke-miterlimit:10;}
	.st32{fill:#FEF6E4;stroke:#F582AE;stroke-width:3.319;stroke-miterlimit:10;}
	.st33{fill:none;stroke:#F582AE;stroke-width:3.319;stroke-linecap:round;stroke-linejoin:round;stroke-miterlimit:10;}
	
		.st34{clip-path:url(#SVGID_00000173850483065556747950000004223246093967753401_);fill:none;stroke:#F582AE;stroke-width:3.319;stroke-miterlimit:10;}
	.st35{clip-path:url(#SVGID_00000078752792724401982260000013316939797095274905_);fill:#F582AE;}
	.st36{clip-path:url(#SVGID_00000078752792724401982260000013316939797095274905_);}
	.st37{fill:#8BD3DD;}
	.st38{fill:#FEF6E4;}
	.st39{fill:#F3D2C1;}
	.st40{fill:#001858;}
</style>
<g>
	<g>
		<defs>
			<ellipse id="SVGID_00000116935366672576422810000010818662414548467608_" cx="117.1" cy="118.5" rx="103.51" ry="104.47"/>
		</defs>
		<clipPath id="SVGID_00000057840832695843624270000010127042602506512562_">
			<use xlink:href="#SVGID_00000116935366672576422810000010818662414548467608_"  style="overflow:visible;"/>
		</clipPath>
		
			<ellipse style="clip-path:url(#SVGID_00000057840832695843624270000010127042602506512562_);fill:#8BD3DD;" cx="117.1" cy="118.5" rx="103.51" ry="104.47"/>
		<g style="clip-path:url(#SVGID_00000057840832695843624270000010127042602506512562_);">
			<path class="st28" d="M72.67,113.32l53.42-24.27c0,0,34.86-8.8,34.86,9.36c0,0,0.63,7.73-6.75,8.26c0,0,8.12,1.49,8.96,9.26
				c0.84,7.77-9.59,6.6-9.59,6.6s9.91,0.53,8.86,7.24c-1.05,6.7-9.7,8.3-9.7,8.3s8.12,1.22,7.49,8.49s-8.33,8.75-8.33,8.75
				s-37.61,26.82-43.65,36.18c-6.05,9.36-31.49,32.07-28.89,49.94l-45.48-46.82l25.44-60.35L72.67,113.32z"/>
			<path class="st29" d="M144.3,175.96H86.93c-4.19,0-7.58-3.4-7.58-7.58V58.27c0-4.19,3.4-7.58,7.58-7.58h57.37
				c4.19,0,7.58,3.4,7.58,7.58v110.1C151.89,172.56,148.49,175.96,144.3,175.96z"/>
			<rect x="83.86" y="60.91" class="st30" width="63.51" height="100.41"/>
			<rect x="108.24" y="55.87" class="st31" width="11.18" height="1.92"/>
			<ellipse class="st31" cx="114.49" cy="169.98" rx="3.87" ry="3.9"/>
			<path class="st28" d="M200.32,198.88l-18.85,34.61l-44.42,15.6l0.56-15.6c0,0,0-8.22-9-20.42c-8.72-11.85-4.66-20.24,7.88-30.11
				c-5.77-13.95-14.59-34.96-18.14-41.41c-1.27-2.32-2.69-4.9-3.98-7.54c5.27,0.82,12.69,0.07,17.21-8.64
				c8.29,11.39,16.88,28.06,21.9,38.38c5.58-6.39,10.77-8.8,17.01,3.33c0,0,12.65-8.79,11.53,6.54c0,0,12.37-6.25,13.78,6.8
				C197.22,193.48,200.32,198.88,200.32,198.88z"/>
			<path class="st32" d="M131.59,125.37c-4.53,8.7-11.94,9.45-17.21,8.64c-4.23-8.67-7-17.97,1.24-20.69
				C119.83,111.74,125.64,117.19,131.59,125.37z"/>
			<line class="st28" x1="143.24" y1="194.62" x2="136.5" y2="182.96"/>
			<line class="st28" x1="157.35" y1="172.48" x2="153.49" y2="163.75"/>
			<path class="st28" d="M33.87,194.62c0,0,2.81,2.84,3.94-25.68s16.87-44.98,19.68-53.21c2.81-8.23,4.22-24.12,4.22-24.12
				s16.03-3.12,19.96,7.66s-11.25,32.07-8.72,41.43c2.53,9.36,17.71,26.11,0.56,43.7"/>
			<path class="st33" d="M59.31,108.35c0,0,10.96,4.37,13.36-5.68s1.21-10.48,1.21-10.48"/>
		</g>
		
			<polyline style="clip-path:url(#SVGID_00000057840832695843624270000010127042602506512562_);fill:none;stroke:#F582AE;stroke-width:3.319;stroke-miterlimit:10;" points="
			160.94,78.15 160.94,66.93 179.9,78.15 179.9,45.15 		"/>
		
			<polyline style="clip-path:url(#SVGID_00000057840832695843624270000010127042602506512562_);fill:none;stroke:#F582AE;stroke-width:3.319;stroke-miterlimit:10;" points="
			61.85,78.15 59.31,70.56 53.35,75.84 50.41,61.65 39.62,66.27 		"/>
		
			<polyline style="clip-path:url(#SVGID_00000057840832695843624270000010127042602506512562_);fill:none;stroke:#F582AE;stroke-width:3.319;stroke-miterlimit:10;" points="
			16.4,127.33 26.54,118.5 24.9,134.26 33.87,130.96 31.44,140.53 		"/>
		
			<polyline style="clip-path:url(#SVGID_00000057840832695843624270000010127042602506512562_);fill:none;stroke:#F582AE;stroke-width:3.319;stroke-miterlimit:10;" points="
			177.94,137.56 191.02,129.51 188.73,148.12 204.1,145.48 202.79,156.04 		"/>
		
			<polyline style="clip-path:url(#SVGID_00000057840832695843624270000010127042602506512562_);fill:none;stroke:#F582AE;stroke-width:3.319;stroke-miterlimit:10;" points="
			106.98,33.56 118.36,22.05 120.95,37.89 130.2,19.74 136.5,24.03 		"/>
	</g>
	<ellipse class="st25" cx="118.5" cy="118.5" rx="114.8" ry="115.87"/>
</g>
</svg>
